<mxfile host="Electron" modified="2025-02-27T14:22:32.712Z" agent="Mozilla/5.0 (X11; Linux x86_64) AppleWebKit/537.36 (KHTML, like Gecko) draw.io/21.1.2 Chrome/106.0.5249.199 Electron/21.4.3 Safari/537.36" etag="YeyC9QWllEKPlcolWT-I" version="21.1.2" type="device">
  <diagram name="Page-1" id="t0ENaaq4powqhnfuvCjV">
    <mxGraphModel dx="1195" dy="713" grid="1" gridSize="10" guides="1" tooltips="1" connect="1" arrows="1" fold="1" page="1" pageScale="1" pageWidth="1169" pageHeight="827" math="0" shadow="0">
      <root>
        <mxCell id="0" />
        <mxCell id="1" parent="0" />
        <mxCell id="l-U-VyjqOVKaKY5XzJUz-40" value="" style="rounded=0;whiteSpace=wrap;html=1;dashed=1;fillColor=none;" vertex="1" parent="1">
          <mxGeometry x="240" y="470" width="700" height="350" as="geometry" />
        </mxCell>
        <mxCell id="l-U-VyjqOVKaKY5XzJUz-3" style="edgeStyle=orthogonalEdgeStyle;rounded=0;orthogonalLoop=1;jettySize=auto;html=1;" edge="1" parent="1" source="l-U-VyjqOVKaKY5XzJUz-1" target="l-U-VyjqOVKaKY5XzJUz-2">
          <mxGeometry relative="1" as="geometry" />
        </mxCell>
        <mxCell id="l-U-VyjqOVKaKY5XzJUz-5" value="queuePaymentRequest&lt;br&gt;PUT /payments/{paymentId}" style="edgeStyle=orthogonalEdgeStyle;rounded=0;orthogonalLoop=1;jettySize=auto;html=1;" edge="1" parent="1" source="l-U-VyjqOVKaKY5XzJUz-1" target="l-U-VyjqOVKaKY5XzJUz-4">
          <mxGeometry x="-0.0694" relative="1" as="geometry">
            <Array as="points">
              <mxPoint x="200" y="150" />
              <mxPoint x="200" y="110" />
              <mxPoint x="470" y="110" />
              <mxPoint x="470" y="150" />
            </Array>
            <mxPoint as="offset" />
          </mxGeometry>
        </mxCell>
        <mxCell id="l-U-VyjqOVKaKY5XzJUz-1" value="Client" style="rounded=0;whiteSpace=wrap;html=1;" vertex="1" parent="1">
          <mxGeometry x="30" y="130" width="120" height="60" as="geometry" />
        </mxCell>
        <mxCell id="l-U-VyjqOVKaKY5XzJUz-2" value="" style="points=[[0,0.5,0],[0.24,0,0],[0.5,0.28,0],[0.995,0.475,0],[0.5,0.72,0],[0.24,1,0]];verticalLabelPosition=bottom;sketch=0;html=1;verticalAlign=top;aspect=fixed;align=center;pointerEvents=1;shape=mxgraph.cisco19.key;fillColor=#005073;strokeColor=none;" vertex="1" parent="1">
          <mxGeometry x="65" y="230" width="50" height="22.5" as="geometry" />
        </mxCell>
        <mxCell id="l-U-VyjqOVKaKY5XzJUz-12" value="if payment request status == &quot;NEW&quot;&lt;br&gt;enqueue payment request" style="edgeStyle=orthogonalEdgeStyle;rounded=0;orthogonalLoop=1;jettySize=auto;html=1;entryX=0.5;entryY=0;entryDx=0;entryDy=0;entryPerimeter=0;" edge="1" parent="1" target="l-U-VyjqOVKaKY5XzJUz-7">
          <mxGeometry x="-0.0222" relative="1" as="geometry">
            <mxPoint x="620" y="150" as="sourcePoint" />
            <Array as="points">
              <mxPoint x="730" y="150" />
            </Array>
            <mxPoint as="offset" />
          </mxGeometry>
        </mxCell>
        <mxCell id="l-U-VyjqOVKaKY5XzJUz-14" value="return payment request entry URL&lt;br&gt;&lt;b&gt;N.B.: the returned URL must be identical to identical requests&lt;/b&gt;" style="edgeStyle=orthogonalEdgeStyle;rounded=0;orthogonalLoop=1;jettySize=auto;html=1;exitX=0;exitY=0.75;exitDx=0;exitDy=0;entryX=1;entryY=0.75;entryDx=0;entryDy=0;" edge="1" parent="1" source="l-U-VyjqOVKaKY5XzJUz-4" target="l-U-VyjqOVKaKY5XzJUz-1">
          <mxGeometry relative="1" as="geometry">
            <Array as="points">
              <mxPoint x="470" y="175" />
              <mxPoint x="470" y="210" />
              <mxPoint x="200" y="210" />
              <mxPoint x="200" y="175" />
            </Array>
            <mxPoint as="offset" />
          </mxGeometry>
        </mxCell>
        <mxCell id="l-U-VyjqOVKaKY5XzJUz-15" value="if payment&lt;br&gt;request doesn&#39;t exist&lt;br&gt;create the entry&lt;br&gt;with status &quot;NEW&quot;" style="edgeStyle=orthogonalEdgeStyle;rounded=0;orthogonalLoop=1;jettySize=auto;html=1;exitX=0.25;exitY=1;exitDx=0;exitDy=0;" edge="1" parent="1" source="l-U-VyjqOVKaKY5XzJUz-4" target="l-U-VyjqOVKaKY5XzJUz-11">
          <mxGeometry x="0.1282" relative="1" as="geometry">
            <Array as="points">
              <mxPoint x="520" y="250" />
              <mxPoint x="420" y="250" />
              <mxPoint x="420" y="385" />
            </Array>
            <mxPoint as="offset" />
          </mxGeometry>
        </mxCell>
        <mxCell id="l-U-VyjqOVKaKY5XzJUz-30" value="after enqueuing&lt;br&gt;set payment request&lt;br&gt;status to &quot;READY&quot;" style="edgeStyle=orthogonalEdgeStyle;rounded=0;orthogonalLoop=1;jettySize=auto;html=1;" edge="1" parent="1" source="l-U-VyjqOVKaKY5XzJUz-4" target="l-U-VyjqOVKaKY5XzJUz-11">
          <mxGeometry x="0.0909" relative="1" as="geometry">
            <Array as="points">
              <mxPoint x="590" y="250" />
              <mxPoint x="680" y="250" />
              <mxPoint x="680" y="390" />
            </Array>
            <mxPoint as="offset" />
          </mxGeometry>
        </mxCell>
        <mxCell id="l-U-VyjqOVKaKY5XzJUz-4" value="payment-gateway&lt;br&gt;REST API" style="rounded=0;whiteSpace=wrap;html=1;" vertex="1" parent="1">
          <mxGeometry x="490" y="130" width="120" height="60" as="geometry" />
        </mxCell>
        <mxCell id="l-U-VyjqOVKaKY5XzJUz-9" value="" style="group" vertex="1" connectable="0" parent="1">
          <mxGeometry x="860" y="130" width="170" height="50" as="geometry" />
        </mxCell>
        <mxCell id="l-U-VyjqOVKaKY5XzJUz-7" value="" style="shape=cylinder3;whiteSpace=wrap;html=1;boundedLbl=1;backgroundOutline=1;size=15;rotation=-90;" vertex="1" parent="l-U-VyjqOVKaKY5XzJUz-9">
          <mxGeometry x="60" y="-60" width="50" height="170" as="geometry" />
        </mxCell>
        <mxCell id="l-U-VyjqOVKaKY5XzJUz-8" value="payment requests" style="text;html=1;strokeColor=none;fillColor=none;align=center;verticalAlign=middle;whiteSpace=wrap;rounded=0;" vertex="1" parent="l-U-VyjqOVKaKY5XzJUz-9">
          <mxGeometry x="55" y="10" width="60" height="30" as="geometry" />
        </mxCell>
        <mxCell id="l-U-VyjqOVKaKY5XzJUz-11" value="payment requests&lt;br&gt;entries" style="shape=cylinder3;whiteSpace=wrap;html=1;boundedLbl=1;backgroundOutline=1;size=15;" vertex="1" parent="1">
          <mxGeometry x="515" y="330" width="70" height="110" as="geometry" />
        </mxCell>
        <mxCell id="l-U-VyjqOVKaKY5XzJUz-16" value="&lt;i&gt;idempotent&lt;br&gt;HTTP request&lt;br&gt;&lt;/i&gt;" style="text;html=1;strokeColor=none;fillColor=none;align=center;verticalAlign=middle;whiteSpace=wrap;rounded=0;" vertex="1" parent="1">
          <mxGeometry x="310" y="40" width="60" height="30" as="geometry" />
        </mxCell>
        <mxCell id="l-U-VyjqOVKaKY5XzJUz-17" value="&lt;i&gt;Kafka idempotent&lt;br&gt;producer&lt;br&gt;&lt;/i&gt;" style="text;html=1;strokeColor=none;fillColor=none;align=center;verticalAlign=middle;whiteSpace=wrap;rounded=0;" vertex="1" parent="1">
          <mxGeometry x="700" y="90" width="60" height="30" as="geometry" />
        </mxCell>
        <mxCell id="l-U-VyjqOVKaKY5XzJUz-18" value="&lt;i&gt;idempotent&lt;br&gt;business&lt;br&gt;logic&lt;br&gt;&lt;/i&gt;" style="text;html=1;strokeColor=none;fillColor=none;align=center;verticalAlign=middle;whiteSpace=wrap;rounded=0;" vertex="1" parent="1">
          <mxGeometry x="520" y="70" width="60" height="30" as="geometry" />
        </mxCell>
        <mxCell id="l-U-VyjqOVKaKY5XzJUz-22" value="POST /payment" style="edgeStyle=orthogonalEdgeStyle;rounded=0;orthogonalLoop=1;jettySize=auto;html=1;exitX=1;exitY=0.25;exitDx=0;exitDy=0;entryX=0;entryY=0.25;entryDx=0;entryDy=0;fontColor=#FF0000;strokeColor=#FF0000;" edge="1" parent="1" source="l-U-VyjqOVKaKY5XzJUz-19" target="l-U-VyjqOVKaKY5XzJUz-21">
          <mxGeometry relative="1" as="geometry" />
        </mxCell>
        <mxCell id="l-U-VyjqOVKaKY5XzJUz-29" value="if success or failure due to duplicated request &lt;br&gt;(e.g. status code = 409 Conflict)&lt;br&gt;set payment request result to &quot;SUCCESS&quot;&lt;br&gt;otherwise set payment request result to &quot;FAILED&quot;&lt;br&gt;(set status to &quot;TERMINATED&quot; in any case)" style="edgeStyle=orthogonalEdgeStyle;rounded=0;orthogonalLoop=1;jettySize=auto;html=1;entryX=1;entryY=0.5;entryDx=0;entryDy=0;entryPerimeter=0;" edge="1" parent="1" source="l-U-VyjqOVKaKY5XzJUz-19" target="l-U-VyjqOVKaKY5XzJUz-27">
          <mxGeometry x="0.037" y="20" relative="1" as="geometry">
            <Array as="points">
              <mxPoint x="590" y="610" />
              <mxPoint x="700" y="610" />
              <mxPoint x="700" y="755" />
            </Array>
            <mxPoint as="offset" />
          </mxGeometry>
        </mxCell>
        <mxCell id="l-U-VyjqOVKaKY5XzJUz-38" style="edgeStyle=orthogonalEdgeStyle;rounded=0;orthogonalLoop=1;jettySize=auto;html=1;exitX=0.25;exitY=1;exitDx=0;exitDy=0;" edge="1" parent="1" source="l-U-VyjqOVKaKY5XzJUz-19" target="l-U-VyjqOVKaKY5XzJUz-27">
          <mxGeometry relative="1" as="geometry">
            <Array as="points">
              <mxPoint x="520" y="610" />
              <mxPoint x="400" y="610" />
              <mxPoint x="400" y="755" />
            </Array>
          </mxGeometry>
        </mxCell>
        <mxCell id="l-U-VyjqOVKaKY5XzJUz-39" value="prior to sending the request to BG&lt;br&gt;set status to &quot;RUNNING&quot;" style="edgeLabel;html=1;align=center;verticalAlign=middle;resizable=0;points=[];" vertex="1" connectable="0" parent="l-U-VyjqOVKaKY5XzJUz-38">
          <mxGeometry x="0.0329" relative="1" as="geometry">
            <mxPoint as="offset" />
          </mxGeometry>
        </mxCell>
        <mxCell id="l-U-VyjqOVKaKY5XzJUz-19" value="payment-gateway&lt;br&gt;payment requests&lt;br&gt;processor" style="rounded=0;whiteSpace=wrap;html=1;" vertex="1" parent="1">
          <mxGeometry x="490" y="510" width="120" height="60" as="geometry" />
        </mxCell>
        <mxCell id="l-U-VyjqOVKaKY5XzJUz-26" value="success or failure (with reason code)" style="edgeStyle=orthogonalEdgeStyle;rounded=0;orthogonalLoop=1;jettySize=auto;html=1;exitX=0;exitY=0.75;exitDx=0;exitDy=0;entryX=1;entryY=0.75;entryDx=0;entryDy=0;strokeColor=#FF0000;fontColor=#FF0000;" edge="1" parent="1" source="l-U-VyjqOVKaKY5XzJUz-21" target="l-U-VyjqOVKaKY5XzJUz-19">
          <mxGeometry relative="1" as="geometry" />
        </mxCell>
        <mxCell id="l-U-VyjqOVKaKY5XzJUz-21" value="3rd party&lt;br&gt;Bank Gateway" style="rounded=0;whiteSpace=wrap;html=1;" vertex="1" parent="1">
          <mxGeometry x="960" y="510" width="120" height="60" as="geometry" />
        </mxCell>
        <mxCell id="l-U-VyjqOVKaKY5XzJUz-24" value="dequeue payment request" style="edgeStyle=orthogonalEdgeStyle;rounded=0;orthogonalLoop=1;jettySize=auto;html=1;exitX=0.5;exitY=1;exitDx=0;exitDy=0;exitPerimeter=0;" edge="1" parent="1" source="l-U-VyjqOVKaKY5XzJUz-7" target="l-U-VyjqOVKaKY5XzJUz-19">
          <mxGeometry x="0.8079" relative="1" as="geometry">
            <mxPoint x="1030" y="120" as="sourcePoint" />
            <Array as="points">
              <mxPoint x="1070" y="155" />
              <mxPoint x="1070" y="460" />
              <mxPoint x="420" y="460" />
              <mxPoint x="420" y="540" />
            </Array>
            <mxPoint as="offset" />
          </mxGeometry>
        </mxCell>
        <mxCell id="l-U-VyjqOVKaKY5XzJUz-25" value="&lt;i&gt;non-idempotent HTTP request&lt;br&gt;&lt;/i&gt;" style="text;html=1;strokeColor=none;fillColor=none;align=center;verticalAlign=middle;whiteSpace=wrap;rounded=0;fontColor=#FF0000;" vertex="1" parent="1">
          <mxGeometry x="730" y="480" width="110" height="30" as="geometry" />
        </mxCell>
        <mxCell id="l-U-VyjqOVKaKY5XzJUz-50" value="read payment request" style="edgeStyle=orthogonalEdgeStyle;rounded=0;orthogonalLoop=1;jettySize=auto;html=1;" edge="1" parent="1" source="l-U-VyjqOVKaKY5XzJUz-27" target="l-U-VyjqOVKaKY5XzJUz-47">
          <mxGeometry relative="1" as="geometry" />
        </mxCell>
        <mxCell id="l-U-VyjqOVKaKY5XzJUz-27" value="payment requests&lt;br style=&quot;border-color: var(--border-color);&quot;&gt;entries" style="shape=cylinder3;whiteSpace=wrap;html=1;boundedLbl=1;backgroundOutline=1;size=15;" vertex="1" parent="1">
          <mxGeometry x="520" y="700" width="70" height="110" as="geometry" />
        </mxCell>
        <mxCell id="l-U-VyjqOVKaKY5XzJUz-28" value="&lt;i&gt;at-least once&lt;br&gt;consumer&lt;br&gt;&lt;/i&gt;" style="text;html=1;align=center;verticalAlign=middle;resizable=0;points=[];autosize=1;strokeColor=none;fillColor=none;" vertex="1" parent="1">
          <mxGeometry x="255" y="475" width="90" height="40" as="geometry" />
        </mxCell>
        <mxCell id="l-U-VyjqOVKaKY5XzJUz-41" value="" style="rounded=0;whiteSpace=wrap;html=1;dashed=1;fillColor=none;" vertex="1" parent="1">
          <mxGeometry x="350" y="240" width="400" height="210" as="geometry" />
        </mxCell>
        <mxCell id="l-U-VyjqOVKaKY5XzJUz-42" style="edgeStyle=orthogonalEdgeStyle;rounded=0;orthogonalLoop=1;jettySize=auto;html=1;" edge="1" parent="1" source="l-U-VyjqOVKaKY5XzJUz-43" target="l-U-VyjqOVKaKY5XzJUz-44">
          <mxGeometry relative="1" as="geometry" />
        </mxCell>
        <mxCell id="l-U-VyjqOVKaKY5XzJUz-43" value="Client" style="rounded=0;whiteSpace=wrap;html=1;" vertex="1" parent="1">
          <mxGeometry x="40" y="950" width="120" height="60" as="geometry" />
        </mxCell>
        <mxCell id="l-U-VyjqOVKaKY5XzJUz-44" value="" style="points=[[0,0.5,0],[0.24,0,0],[0.5,0.28,0],[0.995,0.475,0],[0.5,0.72,0],[0.24,1,0]];verticalLabelPosition=bottom;sketch=0;html=1;verticalAlign=top;aspect=fixed;align=center;pointerEvents=1;shape=mxgraph.cisco19.key;fillColor=#005073;strokeColor=none;" vertex="1" parent="1">
          <mxGeometry x="75" y="1050" width="50" height="22.5" as="geometry" />
        </mxCell>
        <mxCell id="l-U-VyjqOVKaKY5XzJUz-45" value="getPaymentRequest&lt;br&gt;GET /payments/{paymentId}" style="edgeStyle=orthogonalEdgeStyle;rounded=0;orthogonalLoop=1;jettySize=auto;html=1;" edge="1" parent="1" target="l-U-VyjqOVKaKY5XzJUz-47" source="l-U-VyjqOVKaKY5XzJUz-43">
          <mxGeometry x="-0.0675" relative="1" as="geometry">
            <mxPoint x="160" y="970" as="sourcePoint" />
            <Array as="points">
              <mxPoint x="210" y="970" />
              <mxPoint x="210" y="930" />
              <mxPoint x="480" y="930" />
              <mxPoint x="480" y="970" />
            </Array>
            <mxPoint as="offset" />
          </mxGeometry>
        </mxCell>
        <mxCell id="l-U-VyjqOVKaKY5XzJUz-46" value="return payment request data (status and result)&lt;br&gt;or 404" style="edgeStyle=orthogonalEdgeStyle;rounded=0;orthogonalLoop=1;jettySize=auto;html=1;exitX=0;exitY=0.75;exitDx=0;exitDy=0;" edge="1" parent="1" source="l-U-VyjqOVKaKY5XzJUz-47" target="l-U-VyjqOVKaKY5XzJUz-43">
          <mxGeometry relative="1" as="geometry">
            <mxPoint x="160" y="995" as="targetPoint" />
            <Array as="points">
              <mxPoint x="480" y="995" />
              <mxPoint x="480" y="1030" />
              <mxPoint x="210" y="1030" />
              <mxPoint x="210" y="995" />
            </Array>
            <mxPoint as="offset" />
          </mxGeometry>
        </mxCell>
        <mxCell id="l-U-VyjqOVKaKY5XzJUz-47" value="payment-gateway&lt;br&gt;REST API" style="rounded=0;whiteSpace=wrap;html=1;" vertex="1" parent="1">
          <mxGeometry x="495" y="950" width="120" height="60" as="geometry" />
        </mxCell>
        <mxCell id="l-U-VyjqOVKaKY5XzJUz-48" value="&lt;i&gt;idempotent&lt;br&gt;HTTP request&lt;br&gt;&lt;/i&gt;" style="text;html=1;strokeColor=none;fillColor=none;align=center;verticalAlign=middle;whiteSpace=wrap;rounded=0;" vertex="1" parent="1">
          <mxGeometry x="290" y="860" width="60" height="30" as="geometry" />
        </mxCell>
        <mxCell id="l-U-VyjqOVKaKY5XzJUz-49" value="&lt;i&gt;idempotent&lt;br&gt;business&lt;br&gt;logic&lt;br&gt;&lt;/i&gt;" style="text;html=1;strokeColor=none;fillColor=none;align=center;verticalAlign=middle;whiteSpace=wrap;rounded=0;" vertex="1" parent="1">
          <mxGeometry x="525" y="1042.5" width="60" height="30" as="geometry" />
        </mxCell>
        <mxCell id="l-U-VyjqOVKaKY5XzJUz-51" value="transactional boundary" style="text;html=1;align=center;verticalAlign=middle;resizable=0;points=[];autosize=1;strokeColor=none;fillColor=none;" vertex="1" parent="1">
          <mxGeometry x="760" y="285" width="140" height="30" as="geometry" />
        </mxCell>
        <mxCell id="l-U-VyjqOVKaKY5XzJUz-52" value="transactional boundary" style="text;html=1;align=center;verticalAlign=middle;resizable=0;points=[];autosize=1;strokeColor=none;fillColor=none;" vertex="1" parent="1">
          <mxGeometry x="940" y="720" width="140" height="30" as="geometry" />
        </mxCell>
      </root>
    </mxGraphModel>
  </diagram>
</mxfile>
